<?xml version="1.0" encoding="UTF-8"?>
<svg version="1.1" xmlns="http://www.w3.org/2000/svg" width="465" height="245">
<path d="M0 0 C7.450815 -0.06829505 14.90151005 -0.12311142 22.35256386 -0.15543652 C25.81393872 -0.17096591 29.27508485 -0.19196487 32.73632812 -0.22631836 C36.73309278 -0.26573007 40.72962445 -0.27981405 44.7265625 -0.29296875 C46.55400497 -0.31619453 46.55400497 -0.31619453 48.41836548 -0.33988953 C73.58062672 -0.3447207 95.1899276 9.67041517 113 27 C113.63421875 27.58394531 114.2684375 28.16789062 114.921875 28.76953125 C129.1381731 42.19952968 138.98189177 63.37745229 140.17700195 82.88989258 C140.77208926 112.06813764 135.69075809 135.86627176 115.06323242 157.84326172 C98.16480474 175.43862196 76.77649504 185.09738461 52.6875 188 C42.61180913 189.25061268 33.67015652 192.84832672 25 198 C26.64935547 197.49339844 26.64935547 197.49339844 28.33203125 196.9765625 C41.86777473 192.86733305 53.83156148 190.6558274 68 191 C61.19597888 204.26313795 52.72682627 215.17317854 38.2109375 219.91015625 C28.94833238 222.24207674 19.68170264 222.2918051 10.1875 222.3125 C9.5043573 222.31608521 8.8212146 222.31967041 8.11737061 222.32336426 C-0.5271432 222.34774935 -0.5271432 222.34774935 -4 222 C-4.66 221.34 -5.32 220.68 -6 220 C-1.0328488 203.98886367 4.14406777 187.51515505 19.13671875 178.01171875 C28.89013682 172.98504941 39.61262035 170.87285075 50.375 174.1875 C62.27565395 177.20609653 77.54038028 169.92146017 87.96484375 164.44140625 C107.67519451 152.6491304 120.35299924 134.19057676 126.2734375 112.15625 C131.01949711 91.53895878 127.53822055 70.16681757 117.18359375 51.7734375 C104.61399267 32.11915218 87.07153319 19.48440875 64.54296875 13.76171875 C56.81075973 12.09933644 49.39998733 11.79883991 41.50390625 11.68359375 C40.31522446 11.66281265 39.12654266 11.64203156 37.90184021 11.62062073 C34.12211632 11.55548013 30.34232569 11.49640575 26.5625 11.4375 C23.99283177 11.39428101 21.42317017 11.35066566 18.85351562 11.30664062 C12.569078 11.19983523 6.28457356 11.09846856 0 11 C0 7.37 0 3.74 0 0 Z " fill="#007F7F" transform="translate(325,23)"/>
<path d="M0 0 C1.28975739 0.00424484 2.57951477 0.00848969 3.90835571 0.01286316 C7.28510014 0.02414546 10.66143776 0.05346183 14.0380249 0.0869751 C17.50446067 0.11804168 20.97096421 0.13144541 24.4375 0.14648438 C31.20070159 0.17835379 37.96357045 0.23097837 44.7265625 0.29296875 C44.7265625 3.92296875 44.7265625 7.55296875 44.7265625 11.29296875 C42.39851563 11.31484253 42.39851563 11.31484253 40.0234375 11.3371582 C34.19346563 11.39570088 28.3638577 11.47292448 22.53417969 11.55541992 C20.02447473 11.58840848 17.51470023 11.61651892 15.00488281 11.6394043 C-13.94938012 11.91049003 -37.88973496 15.19496637 -59.8984375 35.828125 C-76.77368147 53.34174168 -83.90325924 74.89042668 -83.54296875 98.76171875 C-82.79131867 120.23743528 -72.26160542 140.32391075 -56.87890625 155.09765625 C-42.62531022 167.10743281 -24.23580973 175.20080448 -5.45166016 175.49829102 C-4.33095123 175.51823624 -3.21024231 175.53818146 -2.05557251 175.55873108 C-0.86160858 175.57544357 0.33235535 175.59215607 1.5625 175.609375 C2.79698883 175.6301561 4.03147766 175.65093719 5.30337524 175.67234802 C9.23604921 175.73758711 13.16878839 175.79660927 17.1015625 175.85546875 C19.77215107 175.89817487 22.44271399 175.94229339 25.11328125 175.98632812 C31.65097531 176.09324225 38.18873478 176.19458181 44.7265625 176.29296875 C44.7265625 179.92296875 44.7265625 183.55296875 44.7265625 187.29296875 C37.197206 187.38421241 29.66806291 187.45721893 22.13828373 187.50021744 C18.63990915 187.52087978 15.1419401 187.54879231 11.64379883 187.59472656 C-18.32871372 187.97761552 -18.32871372 187.97761552 -32.2734375 183.29296875 C-33.54658813 182.87700439 -33.54658813 182.87700439 -34.84545898 182.45263672 C-58.89269654 173.81888228 -77.61455436 155.12804943 -88.40527344 132.25927734 C-98.42682739 109.56141583 -98.77645737 83.53791065 -90.2734375 60.29296875 C-86.13665648 50.45544283 -80.92305449 41.65580583 -74.2734375 33.29296875 C-73.5103125 32.26171875 -72.7471875 31.23046875 -71.9609375 30.16796875 C-53.02530032 9.9112406 -27.54708164 -0.35010819 0 0 Z " fill="#007F7F" transform="translate(96.2734375,22.70703125)"/>
<path d="M0 0 C5.61 0 11.22 0 17 0 C18.67264057 4.03837839 20.34509694 8.07683207 22.01708984 12.11547852 C22.58534189 13.48791879 23.15369987 14.86031521 23.72216797 16.23266602 C24.54162339 18.21098352 25.36069139 20.18946106 26.1796875 22.16796875 C26.67194824 23.35672607 27.16420898 24.5454834 27.67138672 25.77026367 C28.79732797 28.507323 29.9071021 31.24961586 31 34 C33.09805991 30.85291014 34.41929372 27.67677062 35.78515625 24.1796875 C36.04630722 23.52042267 36.30745819 22.86115784 36.57652283 22.18191528 C37.40849391 20.08090089 38.23590756 17.97813576 39.0625 15.875 C39.89297744 13.76485304 40.72447762 11.65513739 41.55918884 9.54666138 C42.0781531 8.23555677 42.59463008 6.92346445 43.1084137 5.61032104 C44.88756794 1.11243206 44.88756794 1.11243206 46 0 C51.28 0 56.56 0 62 0 C62 18.15 62 36.3 62 55 C57.38 55 52.76 55 48 55 C47.505 42.13 47.505 42.13 47 29 C46.04287109 31.68962891 46.04287109 31.68962891 45.06640625 34.43359375 C44.23191921 36.76828221 43.39727573 39.10291475 42.5625 41.4375 C42.14162109 42.62150391 41.72074219 43.80550781 41.28710938 45.02539062 C40.88427734 46.15009766 40.48144531 47.27480469 40.06640625 48.43359375 C39.69459229 49.47572021 39.32277832 50.51784668 38.93969727 51.59155273 C38 54 38 54 37 55 C33.04 55 29.08 55 25 55 C21.7 46.09 18.4 37.18 15 28 C14.67 36.91 14.34 45.82 14 55 C9.38 55 4.76 55 0 55 C0 36.85 0 18.7 0 0 Z " fill="#007F7F" transform="translate(203,0)"/>
<path d="M0 0 C4.29 0 8.58 0 13 0 C13.33 0.99 13.66 1.98 14 3 C14.7425 2.505 15.485 2.01 16.25 1.5 C21.74237955 -1.22015954 28.70483083 -1.07211246 34.44921875 0.796875 C37.86926564 2.44052045 40.39220993 4.23368165 43 7 C43.47050781 6.57847656 43.94101563 6.15695313 44.42578125 5.72265625 C45.04839844 5.17480469 45.67101562 4.62695312 46.3125 4.0625 C46.92738281 3.51722656 47.54226562 2.97195312 48.17578125 2.41015625 C52.91318097 -1.25194503 59.33017068 -0.51021278 65 0 C69.48825908 1.26480731 72.25737684 3.17920599 75.375 6.625 C79.64015076 15.48339005 79.25404865 24.98605849 79.125 34.625 C79.11597656 35.91535156 79.10695313 37.20570313 79.09765625 38.53515625 C79.07428566 41.69018554 79.03842211 44.84511811 79 48 C74.71 48 70.42 48 66 48 C65.96261719 46.13214844 65.92523438 44.26429688 65.88671875 42.33984375 C65.82104471 39.87237624 65.75459787 37.40492921 65.6875 34.9375 C65.66494141 33.70837891 65.64238281 32.47925781 65.61914062 31.21289062 C65.4288637 24.79536897 65.22816384 19.62507549 62 14 C59.9781185 12.202772 58.73736162 12.00895581 56.0703125 11.9765625 C51.80423508 12.19856032 51.80423508 12.19856032 48.41308594 14.59423828 C46.49085166 17.86681889 46.56579412 20.38924707 46.48828125 24.171875 C46.47033005 24.8542926 46.45237885 25.53671021 46.43388367 26.23980713 C46.37989617 28.4098094 46.34592417 30.57959325 46.3125 32.75 C46.27931648 34.22529074 46.24482585 35.70055269 46.20898438 37.17578125 C46.12417842 40.78364427 46.05731163 44.39158362 46 48 C41.71 48 37.42 48 33 48 C32.96261719 46.04835937 32.92523438 44.09671875 32.88671875 42.0859375 C32.82105335 39.51560597 32.75460621 36.94529432 32.6875 34.375 C32.65366211 32.44720703 32.65366211 32.44720703 32.61914062 30.48046875 C32.58369141 29.23652344 32.54824219 27.99257812 32.51171875 26.7109375 C32.47244263 24.99849854 32.47244263 24.99849854 32.43237305 23.25146484 C31.8704877 19.02606162 30.6229833 15.38254133 27.3125 12.5625 C23.83441937 11.71648039 20.38717464 11.78979797 17 13 C13.57444079 16.44136949 13.58514216 19.44506259 13.48828125 24.171875 C13.47033005 24.8542926 13.45237885 25.53671021 13.43388367 26.23980713 C13.37989617 28.4098094 13.34592417 30.57959325 13.3125 32.75 C13.27931648 34.22529074 13.24482585 35.70055269 13.20898438 37.17578125 C13.12417842 40.78364427 13.05731163 44.39158362 13 48 C8.71 48 4.42 48 0 48 C0 32.16 0 16.32 0 0 Z " fill="#008080" transform="translate(178,97)"/>
<path d="M0 0 C4.95 0 9.9 0 15 0 C15.33 5.28 15.66 10.56 16 16 C18.31 15.01 20.62 14.02 23 13 C28.58400967 12.08868962 33.28562811 12.75232159 38 16 C42.74136103 20.60491899 45.68804828 24.76078043 46.3359375 31.48828125 C46.43068561 40.76412138 45.61932822 46.61870794 39.625 53.875 C35.10580903 57.53339269 30.82784888 58.39230508 25.03515625 58.26953125 C21.67631709 57.82469459 19.01865753 56.50932877 16 55 C15.67 55.66 15.34 56.32 15 57 C10.05 57 5.1 57 0 57 C0 38.19 0 19.38 0 0 Z M18 27 C15.33338905 29.76184706 14.17874947 32.15688643 14 36 C15.81496913 41.38004613 15.81496913 41.38004613 20 45 C25.0830999 45.56526648 25.0830999 45.56526648 29.375 43.125 C32.28296416 39.32227763 32.32430084 36.78343732 32 32 C30.56266425 28.40666063 29.60090148 27.30045074 26.125 25.5625 C22.52419742 24.91435554 21.12143872 25.14400941 18 27 Z " fill="#008080" transform="translate(263,175)"/>
<path d="M0 0 C4.62 0 9.24 0 14 0 C14 6.93 14 13.86 14 21 C20.6 21 27.2 21 34 21 C34 14.07 34 7.14 34 0 C38.62 0 43.24 0 48 0 C48 17.82 48 35.64 48 54 C43.38 54 38.76 54 34 54 C34 46.74 34 39.48 34 32 C27.4 32 20.8 32 14 32 C14 39.26 14 46.52 14 54 C9.38 54 4.76 54 0 54 C0 36.18 0 18.36 0 0 Z " fill="#008080" transform="translate(159,178)"/>
<path d="M0 0 C5.09634231 4.57407252 8.268251 8.03334861 9 15 C6.75165504 15.13526139 4.50097486 15.23210804 2.25 15.3125 C0.99703125 15.37050781 -0.2559375 15.42851563 -1.546875 15.48828125 C-5 15 -5 15 -7.24609375 12.59375 C-7.82488281 11.7378125 -8.40367188 10.881875 -9 10 C-13.79965267 7.37377495 -17.55329783 6.33110675 -23 7 C-27.45890028 8.40807377 -30.90014097 10.23251487 -33.4375 14.25 C-36.39692019 20.43189996 -36.47188368 26.36261309 -34.79296875 32.88671875 C-33.19869187 37.13550591 -30.68346503 39.94182198 -26.8125 42.375 C-20.95852859 43.67588253 -15.89864045 43.98322452 -10.5 41.1875 C-7.85486935 39.06495548 -7.85486935 39.06495548 -6 36 C-3.37302936 35.77862607 -0.99106036 35.71837975 1.625 35.8125 C2.33140625 35.82603516 3.0378125 35.83957031 3.765625 35.85351562 C5.51074128 35.8888896 7.25546608 35.94269779 9 36 C8.06006829 42.22299616 4.94983836 46.5793079 0.10546875 50.5546875 C-8.02394299 55.97429533 -17.00966949 57.26037777 -26.578125 55.53515625 C-35.69895253 53.17101537 -41.8750077 48.35596579 -46.8125 40.359375 C-50.65517289 32.7245907 -51.00876711 24.24404488 -48.875 16.0625 C-45.96904107 7.34462321 -41.73152944 1.53694203 -33.56640625 -2.84375 C-22.50292338 -7.82821108 -10.00994681 -7.09247488 0 0 Z " fill="#008080" transform="translate(107,90)"/>
<path d="M0 0 C0.886875 0.66 1.77375 1.32 2.6875 2 C3.0175 0.68 3.3475 -0.64 3.6875 -2 C7.9775 -2 12.2675 -2 16.6875 -2 C16.6875 13.84 16.6875 29.68 16.6875 46 C12.3975 46 8.1075 46 3.6875 46 C3.3575 45.01 3.0275 44.02 2.6875 43 C1.594375 43.66 0.50125 44.32 -0.625 45 C-6.42216818 47.8729329 -12.37331792 48.1458206 -18.58203125 46.33984375 C-24.43488711 43.75473915 -28.7298833 39.39211202 -31.4296875 33.60546875 C-34.25294218 25.27311976 -34.00779192 16.47011705 -30.12109375 8.58203125 C-27.41248472 4.05784232 -24.65231925 0.64866015 -19.71875 -1.41015625 C-13.20099439 -3.00785284 -5.96652306 -3.39558223 0 0 Z M-18.1875 14 C-19.93755304 18.6668081 -20.09051405 23.08698536 -19.3125 28 C-17.68646341 31.26497824 -15.32249237 33.22567251 -12.4375 35.4375 C-9.05705454 36.3323238 -6.68456503 35.87208578 -3.3125 35 C-0.40121014 33.14145335 2.11672037 31.14155926 3.6875 28 C4.09277925 23.16003055 4.27982881 18.5795435 2.5625 14 C-0.42135596 10.81722031 -3.50278183 9.27145773 -7.8125 8.625 C-12.12221817 9.27145773 -15.20364404 10.81722031 -18.1875 14 Z " fill="#007F7F" transform="translate(298.3125,99)"/>
<path d="M0 0 C3.80536598 2.32458226 6.32093424 5.32936847 8.3125 9.3125 C8.352492 11.31210012 8.35596799 13.31297242 8.3125 15.3125 C5.87315775 15.44751894 3.44125896 15.54653897 1 15.625 C0.30970703 15.66689453 -0.38058594 15.70878906 -1.09179688 15.75195312 C-3.11328125 15.80078125 -3.11328125 15.80078125 -6.6875 15.3125 C-8.50390625 12.81640625 -8.50390625 12.81640625 -9.6875 10.3125 C-12.27267587 9.81190084 -12.27267587 9.81190084 -14.6875 10.3125 C-15.98383621 11.37895115 -15.98383621 11.37895115 -15.75 13.875 C-15.729375 14.679375 -15.70875 15.48375 -15.6875 16.3125 C-14.86342651 16.62888428 -14.86342651 16.62888428 -14.02270508 16.95166016 C-11.50774222 17.92900893 -9.004195 18.93289953 -6.5 19.9375 C-5.63568359 20.26878906 -4.77136719 20.60007812 -3.88085938 20.94140625 C2.40554785 23.4945065 6.20059293 26.08868587 9.3125 32.3125 C9.97408323 37.63770275 9.7075809 42.20325513 6.69921875 46.7421875 C2.977043 50.95715835 -1.51581934 53.39590935 -7.0625 54.25 C-14.65128986 54.69562842 -21.81956413 53.34215932 -27.6875 48.3125 C-31.46446721 43.74038179 -31.6875 42.55851419 -31.6875 36.3125 C-26.7375 36.3125 -21.7875 36.3125 -16.6875 36.3125 C-16.3575 37.9625 -16.0275 39.6125 -15.6875 41.3125 C-11.03697128 41.58182521 -11.03697128 41.58182521 -6.6875 40.3125 C-6.6875 38.6625 -6.6875 37.0125 -6.6875 35.3125 C-7.84765625 34.84070312 -7.84765625 34.84070312 -9.03125 34.359375 C-26.89003165 27.02136076 -26.89003165 27.02136076 -30.6875 22.3125 C-32.50455092 16.86134723 -32.76950702 10.69250989 -30.1875 5.4375 C-23.86290161 -3.75598838 -9.50117345 -4.36733114 0 0 Z " fill="#007F7F" transform="translate(188.6875,1.6875)"/>
<path d="M0 0 C4.81540483 3.90036353 8.45191595 8.13043168 9.64453125 14.33203125 C9.64453125 17.96203125 9.64453125 21.59203125 9.64453125 25.33203125 C-1.57546875 25.33203125 -12.79546875 25.33203125 -24.35546875 25.33203125 C-22.17487042 32.1802902 -22.17487042 32.1802902 -18.35546875 34.33203125 C-16.21087699 34.72233482 -16.21087699 34.72233482 -13.91796875 34.70703125 C-12.77521484 34.74957031 -12.77521484 34.74957031 -11.609375 34.79296875 C-9.17009158 34.52450577 -9.17009158 34.52450577 -7.5234375 32.32421875 C-4.42997314 29.48157582 -2.22235369 29.92955403 1.89453125 30.08203125 C3.1578125 30.118125 4.42109375 30.15421875 5.72265625 30.19140625 C6.686875 30.2378125 7.65109375 30.28421875 8.64453125 30.33203125 C6.86093994 36.07471536 4.80563953 40.19382857 -0.2265625 43.59765625 C-7.33360084 47.30114045 -15.25811095 47.61586652 -22.9765625 45.671875 C-28.43173727 43.54684064 -32.3614266 40.37967924 -35.35546875 35.33203125 C-38.89698688 26.98799989 -39.26037975 19.45378766 -36.4609375 10.83203125 C-34.0373572 5.35114293 -30.29115751 1.62249042 -25.35546875 -1.66796875 C-17.72427216 -4.31552675 -6.97671115 -4.30154522 0 0 Z M-20.35546875 9.33203125 C-23.71112333 12.7635828 -23.71112333 12.7635828 -24.35546875 17.33203125 C-17.42546875 17.33203125 -10.49546875 17.33203125 -3.35546875 17.33203125 C-5.49171583 10.76445435 -5.49171583 10.76445435 -8.109375 8.9921875 C-13.21080152 7.30640293 -15.50932968 6.90896172 -20.35546875 9.33203125 Z " fill="#007F7F" transform="translate(397.35546875,99.66796875)"/>
<path d="M0 0 C10.89 0 21.78 0 33 0 C33 3.96 33 7.92 33 12 C26.73 12 20.46 12 14 12 C14 15.3 14 18.6 14 22 C19.61 22 25.22 22 31 22 C31 25.63 31 29.26 31 33 C25.39 33 19.78 33 14 33 C14 36.63 14 40.26 14 44 C20.27 44 26.54 44 33 44 C33 47.63 33 51.26 33 55 C22.11 55 11.22 55 0 55 C0 36.85 0 18.7 0 0 Z " fill="#008080" transform="translate(274,0)"/>
<path d="M0 0 C4.62 0 9.24 0 14 0 C14.06058594 1.83046875 14.12117187 3.6609375 14.18359375 5.546875 C14.26800565 7.94792454 14.35265333 10.34896579 14.4375 12.75 C14.47681641 13.9565625 14.51613281 15.163125 14.55664062 16.40625 C14.61948242 18.14648438 14.61948242 18.14648438 14.68359375 19.921875 C14.72025146 20.99018555 14.75690918 22.05849609 14.79467773 23.15917969 C14.96986909 25.58311152 15.31198487 27.67886712 16 30 C21.35392552 31.15838889 21.35392552 31.15838889 26.4375 29.875 C29.34796394 26.38244328 29.14455102 21.87505241 29.31640625 17.48046875 C29.35830078 16.45888672 29.40019531 15.43730469 29.44335938 14.38476562 C29.48267578 13.32966797 29.52199219 12.27457031 29.5625 11.1875 C29.60568359 10.11306641 29.64886719 9.03863281 29.69335938 7.93164062 C29.79910902 5.28789949 29.90002703 2.64396588 30 0 C34.62 0 39.24 0 44 0 C44 14.19 44 28.38 44 43 C39.38 43 34.76 43 30 43 C29.67 42.01 29.34 41.02 29 40 C28.38125 40.474375 27.7625 40.94875 27.125 41.4375 C21.6064094 44.1967953 15.63282616 44.82413416 9.6875 43 C5.45311414 41.13995601 3.04498702 38.08119727 1 34 C-0.19701045 30.35113438 -0.11383715 26.86556671 -0.09765625 23.046875 C-0.0962413 22.38665344 -0.09482635 21.72643188 -0.09336853 21.04620361 C-0.08779245 18.94742206 -0.07524447 16.84874905 -0.0625 14.75 C-0.0574819 13.32291821 -0.05291954 11.89583475 -0.04882812 10.46875 C-0.03868377 6.97909168 -0.01910401 3.48966668 0 0 Z " fill="#008080" transform="translate(213,189)"/>
<path d="M0 0 C4.29 0 8.58 0 13 0 C13 3.63 13 7.26 13 11 C16.3 11 19.6 11 23 11 C23 14.63 23 18.26 23 22 C19.7 22 16.4 22 13 22 C13.33 30.25 13.66 38.5 14 47 C16.97 47.66 19.94 48.32 23 49 C23 52.3 23 55.6 23 59 C20.62374823 59.10883596 18.25256024 59.18766696 15.875 59.25 C15.20984375 59.28351563 14.5446875 59.31703125 13.859375 59.3515625 C8.72295168 59.45227668 5.8928447 58.30371983 2 55 C-0.34618394 51.500607 -0.23163142 48.40598153 -0.1953125 44.265625 C-0.18564453 42.32236328 -0.18564453 42.32236328 -0.17578125 40.33984375 C-0.15907193 38.97655981 -0.14214206 37.61327856 -0.125 36.25 C-0.1149634 34.87110015 -0.10583873 33.49219335 -0.09765625 32.11328125 C-0.07408093 28.74201118 -0.0411727 25.37109364 0 22 C-1.98 22 -3.96 22 -6 22 C-6 18.37 -6 14.74 -6 11 C-4.02 11 -2.04 11 0 11 C0 7.37 0 3.74 0 0 Z " fill="#008080" transform="translate(330,86)"/>
<path d="M0 0 C4.29 0 8.58 0 13 0 C13 21.12 13 42.24 13 64 C8.71 64 4.42 64 0 64 C0 42.88 0 21.76 0 0 Z " fill="#008080" transform="translate(127,82)"/>
<path d="M0 0 C4.29 0 8.58 0 13 0 C13 15.84 13 31.68 13 48 C8.71 48 4.42 48 0 48 C0 32.16 0 16.32 0 0 Z " fill="#008080" transform="translate(152,97)"/>
<path d="M0 0 C2.5625 2.0625 2.5625 2.0625 4 5 C4.0625 8.625 4.0625 8.625 3 12 C0.02911646 14.79612568 -1.54202666 15.00789609 -5.625 14.9375 C-9 14 -9 14 -11 12.375 C-12.45635054 8.91616747 -11.91305869 6.58701629 -11 3 C-8.73470302 -1.13083567 -4.20080762 -0.88571245 0 0 Z " fill="#008080" transform="translate(163,78)"/>
</svg>
