<?xml version="1.0" encoding="UTF-8"?>
<svg xmlns="http://www.w3.org/2000/svg" width="112" height="59" viewBox="0 0 112 59" fill="none">
  <g clip-path="url(#clip0_182_481)">
    <path d="M21.1658 20.4305C24.3479 20.4305 26.9273 22.1431 27.8916 25.0618H24.589C23.914 23.6869 22.6845 23.0115 21.1417 23.0115C18.6346 23.0115 16.8507 24.8447 16.8507 27.7392C16.8507 30.6337 18.6346 32.4669 21.1417 32.4669C22.6845 32.4669 23.914 31.7915 24.589 30.3925H27.8916C26.9273 33.3353 24.3479 35.0238 21.1658 35.0238C17.0435 35.0238 13.9097 32.0086 13.9097 27.7392C13.9097 23.4698 17.0677 20.4305 21.1658 20.4305Z" fill="white"></path>
    <path d="M30.7361 19.7551H33.6048V34.9272H30.7361V19.7551Z" fill="white"></path>
    <path d="M36.5217 20.527C36.5217 19.5863 37.269 18.8385 38.2815 18.8385C39.294 18.8385 40.0413 19.5863 40.0413 20.527C40.0413 21.4677 39.294 22.2154 38.2815 22.2154C37.2449 22.2154 36.5217 21.4677 36.5217 20.527ZM36.8351 23.5662H39.7038V34.9272H36.8351V23.5662Z" fill="white"></path>
    <path d="M58.7965 28.6557C58.7965 26.8466 57.784 25.9059 56.2653 25.9059C54.7225 25.9059 53.7341 26.8466 53.7341 28.6557V34.9272H50.8654V28.6557C50.8654 26.8466 49.8529 25.9059 48.3342 25.9059C46.7672 25.9059 45.7789 26.8466 45.7789 28.6557V34.9272H42.9102V23.5662H45.7789V24.9411C46.5021 24.0004 47.7074 23.3973 49.1297 23.3973C50.8895 23.3973 52.3359 24.1451 53.1314 25.5682C53.8787 24.2657 55.3734 23.3973 57.0126 23.3973C59.7367 23.3973 61.6652 25.1099 61.6652 28.2457V34.9031H58.7965V28.6557Z" fill="white"></path>
    <path d="M69.2105 23.3733C71.0427 23.3733 72.2721 24.2416 72.9712 25.1824V23.5663H75.864V34.9273H72.9712V33.2629C72.2962 34.2519 70.9944 35.0961 69.2105 35.0961C66.3418 35.0961 64.0517 32.7322 64.0517 29.1865C64.0276 25.6648 66.3177 23.3733 69.2105 23.3733ZM69.9579 25.906C68.415 25.906 66.9686 27.0638 66.9686 29.2106C66.9686 31.3573 68.415 32.5875 69.9579 32.5875C71.5248 32.5875 72.9712 31.4056 72.9712 29.2347C72.9712 27.0638 71.5248 25.906 69.9579 25.906Z" fill="white"></path>
    <path d="M79.5043 25.9301H78.1543V23.5662H79.5043V20.7682H82.3971V23.5662H84.9283V25.9301H82.3971V31.4297C82.3971 32.1774 82.7105 32.5151 83.6024 32.5151H84.9283V34.9272H83.1203C80.9507 34.9272 79.5043 34.0106 79.5043 31.4056V25.9301Z" fill="white"></path>
    <path d="M92.353 35.0961C89.0504 35.0961 86.6638 32.8046 86.6638 29.2347C86.6638 25.6407 89.0022 23.3733 92.353 23.3733C95.6315 23.3733 97.9458 25.6165 97.9458 28.9935C97.9458 29.3553 97.9217 29.7412 97.8735 30.1031H89.5807C89.7254 31.7915 90.8825 32.7322 92.3048 32.7322C93.5342 32.7322 94.2092 32.1292 94.5708 31.3573H97.6565C97.0297 33.4559 95.1494 35.0961 92.353 35.0961ZM89.5807 28.1734H94.9565C94.9083 26.6779 93.7271 25.7371 92.2566 25.7371C90.8825 25.7371 89.7977 26.6296 89.5807 28.1734Z" fill="white"></path>
    <path d="M42.8618 13.2424C40.0895 13.2424 37.9199 11.8675 37.8235 9.23835H41.1743C41.2708 10.2273 41.8975 10.7097 42.7654 10.7097C43.6814 10.7097 44.2841 10.2514 44.2841 9.50368C44.2841 7.1157 37.8235 8.39411 37.8717 3.81112C37.8717 1.35078 39.8726 0 42.5725 0C45.393 0 47.2733 1.39902 47.418 3.85936H44.0189C43.9707 3.03925 43.368 2.53271 42.5243 2.50859C41.777 2.48446 41.1984 2.8704 41.1984 3.69052C41.1984 5.93377 47.5867 4.92069 47.5867 9.23835C47.5626 11.4334 45.8751 13.2424 42.8618 13.2424Z" fill="white"></path>
    <path d="M49.1295 0.168823H52.842L56.458 9.11772L60.0499 0.168823H63.7382V13.0977H60.5802V5.35484L57.6874 13.0977H55.1562L52.2393 5.33072V13.0977H49.0813V0.168823H49.1295Z" fill="white"></path>
    <path d="M73.9114 2.70153H69.1383V5.3066H73.357V7.74282H69.1383V10.5891H73.9114V13.0977H66.0044V0.168823H73.9114V2.70153Z" fill="white"></path>
    <path d="M46.5019 50.5335H41.6082V55.8643H38.4502V42.9354H41.6082V48.0008H46.5019V42.9354H49.6598V55.8643H46.5019V50.5335Z" fill="white"></path>
    <path d="M61.6651 55.8401H58.5312V54.4411C57.9045 55.3336 56.7955 55.9607 55.4215 55.9607C53.059 55.9607 51.4438 54.3205 51.4438 51.5707V45.5646H54.5777V51.1365C54.5777 52.5355 55.3733 53.3074 56.5545 53.3074C57.7598 53.3074 58.5312 52.5355 58.5312 51.1365V45.5646H61.6651V55.8401Z" fill="white"></path>
    <path d="M69.8855 45.4199C72.4168 45.4199 74.4176 47.4461 74.4176 50.6783C74.4176 53.9105 72.4168 55.9849 69.8855 55.9849C68.3668 55.9849 67.282 55.3095 66.7276 54.3929V55.8402H63.5696V42.2118H66.7276V47.0119C67.282 46.1194 68.3909 45.4199 69.8855 45.4199ZM68.9454 48.1697C67.7642 48.1697 66.7035 49.0622 66.7035 50.7024C66.7035 52.3426 67.7642 53.2351 68.9454 53.2351C70.1507 53.2351 71.2114 52.3185 71.2114 50.6783C71.1873 49.0622 70.1266 48.1697 68.9454 48.1697Z" fill="white"></path>
    <path d="M0.217041 28.0768C0.217041 40.4991 10.3178 50.5817 22.7086 50.5817H33.7254V48.0731H22.7086C11.6919 48.0731 2.72414 39.1001 2.72414 28.0768C2.72414 17.0535 11.6919 8.08048 22.7086 8.08048H33.7254V5.5719H22.7086C10.3178 5.5719 0.217041 15.6786 0.217041 28.0768Z" fill="white"></path>
    <path d="M112 28.0768C112 15.6545 101.899 5.5719 89.5084 5.5719H78.4916V8.08048H89.5084C100.525 8.08048 109.493 17.0535 109.493 28.0768C109.493 38.473 101.514 47.06 91.3405 47.9766C90.3522 47.6872 89.3879 47.446 88.6647 47.3736C87.7968 47.2771 86.8808 47.3013 85.9647 47.4942C78.9497 48.7003 77.0693 58.7587 77.0693 58.7587L78.7568 58.9517C88.8816 59.3376 90.5691 56.6843 91.678 55.623C92.353 54.9717 93.6307 52.9938 94.5226 51.5465C91.678 51.5465 87.0736 52.029 81.3603 54.9235C84.5906 52.3184 88.1343 50.7747 91.003 50.5335C102.574 49.6169 112 39.9926 112 28.0768Z" fill="white"></path>
  </g>
  <defs>
    <clipPath id="clip0_182_481">
      <rect width="112" height="59" fill="white"></rect>
    </clipPath>
  </defs>
</svg>
